<svg width="30" height="30" viewBox="0 0 30 30" fill="none" xmlns="http://www.w3.org/2000/svg">
<path fill-rule="evenodd" clip-rule="evenodd" d="M1.0257 22.2048C3.98525 17.2877 6.96861 12.2601 9.92816 7.34302C10.8648 6.07286 11.965 6.60294 12.5035 7.44496C14.7506 11.1479 17.021 15.0063 19.2681 18.7093C19.4775 19.1047 19.8306 19.408 20.2571 19.5584L22.6248 19.5324C22.7351 19.4509 22.7491 19.3693 22.6952 19.2878L14.6698 5.99232C13.0575 3.49481 9.24522 3.68748 7.9389 5.76908L0.403353 18.2388C0.0551618 18.8767 -0.0725492 19.6088 0.0395521 20.3244C0.151653 21.0401 0.497459 21.7003 1.02466 22.2053" fill="#FFFEF5"/>
<path fill-rule="evenodd" clip-rule="evenodd" d="M24.2359 25.0722C18.519 25.0963 12.6948 25.156 6.97783 25.1801C5.41883 25.0495 5.35482 23.9188 5.83264 23.0842C7.993 19.5087 10.2784 15.8415 12.4383 12.2641C12.6815 11.9154 12.7778 11.4861 12.7067 11.0678L11.5496 9.19852C11.4256 9.14925 11.3477 9.17881 11.3015 9.2611L3.52491 22.0653C3.22692 22.6111 3.07195 23.2225 3.07424 23.8433C3.07654 24.4641 3.23603 25.0744 3.53803 25.618C3.84004 26.1616 4.27488 26.6211 4.80253 26.9541C5.33018 27.2871 5.93369 27.4831 6.55756 27.5238L21.0683 27.4834C21.7843 27.4613 22.4752 27.2167 23.0438 26.7841C23.6124 26.3516 24.03 25.7528 24.2379 25.0722" fill="#FFFEF5"/>
<path fill-rule="evenodd" clip-rule="evenodd" d="M28.3282 21.1829C28.6684 21.1953 28.9974 21.3075 29.2743 21.5056C29.5512 21.7036 29.7637 21.9788 29.8854 22.2968C30.0071 22.6148 30.0325 22.9616 29.9585 23.294C29.8846 23.6264 29.7145 23.9296 29.4694 24.166C29.2244 24.4024 28.9153 24.5614 28.5805 24.6233C28.2458 24.6852 27.9002 24.6472 27.5869 24.5141C27.2736 24.3809 27.0063 24.1585 26.8185 23.8746C26.6306 23.5906 26.5304 23.2577 26.5304 22.9172C26.5389 22.4487 26.7331 22.0029 27.0703 21.6777C27.4074 21.3524 27.8599 21.1745 28.3282 21.1829Z" fill="#FFFEF5"/>
<path fill-rule="evenodd" clip-rule="evenodd" d="M15.4477 4.8055C18.3234 9.52318 21.2848 14.3102 24.1605 19.0269C24.8208 20.3817 23.832 20.998 22.8398 21.0196C18.5329 21.0156 14.0789 20.9557 9.77208 20.9518C9.33475 20.9246 8.90264 21.0579 8.5579 21.3262L7.44775 23.2153C7.46608 23.3421 7.53047 23.3922 7.62757 23.3887L23.0711 23.4379C26.0216 23.3637 27.6782 20.2485 26.4893 18.2091L19.2071 6.22621C18.8023 5.63633 18.2247 5.18394 17.5524 4.93013C16.8801 4.67632 16.1454 4.63333 15.4477 4.80697" fill="#DDEE1C"/>
<path fill-rule="evenodd" clip-rule="evenodd" d="M2.13024 25.9054C2.47839 25.918 2.8151 26.0319 3.09847 26.2332C3.38183 26.4344 3.59932 26.714 3.72382 27.0371C3.84833 27.3601 3.87435 27.7125 3.79866 28.0501C3.72296 28.3878 3.54889 28.6959 3.29813 28.936C3.04737 29.1761 2.731 29.3377 2.38843 29.4006C2.04586 29.4635 1.69224 29.4249 1.3716 29.2896C1.05096 29.1544 0.777477 28.9284 0.585224 28.6399C0.392971 28.3515 0.290441 28.0132 0.290405 27.6673C0.299143 27.1914 0.497875 26.7384 0.842899 26.408C1.18792 26.0776 1.65099 25.8968 2.13024 25.9054Z" fill="#DDEE1C"/>
<path fill-rule="evenodd" clip-rule="evenodd" d="M11.0156 0.000301375C11.4902 -0.00856224 11.9487 0.178398 12.2903 0.520064C12.632 0.86173 12.8287 1.33012 12.8374 1.82223C12.8201 2.3112 12.6206 2.77415 12.2809 3.11373C11.9412 3.45331 11.4877 3.64305 11.0159 3.64305C10.544 3.64305 10.0906 3.45331 9.75085 3.11373C9.41114 2.77415 9.21165 2.3112 9.19434 1.82223C9.20299 1.33021 9.39971 0.861898 9.74124 0.520247C10.0828 0.178595 10.5411 -0.00842558 11.0156 0.000301375Z" fill="#DDEE1C"/>
</svg>
